# Blender 5.0.1
# www.blender.org
o Collider_-_Stomach
v -5.760341 0.339298 2.302989
v -5.439236 0.340157 0.984759
v -4.931846 0.340639 0.224916
v -3.969912 0.341346 -0.138080
v -3.102362 0.341487 0.032218
v -1.958603 0.341300 -0.276728
v -0.994224 0.341278 -0.642963
v -0.833225 0.341312 -1.003362
v -1.178705 0.341494 -2.021437
v -1.385618 0.341513 -2.097056
v -2.073679 0.341158 -3.068794
v -2.132247 0.340841 -4.457258
v -1.903524 0.339904 -6.207043
v -0.496997 0.339972 -6.205601
v -0.445613 0.341152 -4.407696
v -0.627833 0.340810 -3.932057
v -0.424346 0.340207 -3.535895
v -0.230425 0.340378 -3.861204
v 1.200259 0.339937 -4.135856
v 2.684817 0.339651 -3.523725
v 3.028798 0.339519 -3.199539
v 3.620571 0.339454 -2.182407
v 3.555531 0.339558 -0.488912
v 3.240370 0.339610 0.531704
v 2.300274 0.339629 2.109746
v 1.898611 0.339674 2.440125
v 0.290888 0.339677 3.369553
v -1.760711 0.339731 3.415377
v -3.103169 0.339741 2.967269
v -3.516864 0.339905 2.544079
v -3.885464 0.330189 1.629829
v -4.007096 0.335945 1.467954
v -4.155344 0.341018 1.457917
v -4.750012 0.340849 2.378524
v -5.796956 9.882022 2.328767
v -5.474756 9.882881 1.001993
v -4.964002 9.883362 0.236578
v -3.995197 9.884069 -0.129245
v -3.119064 9.884211 0.043877
v -1.964319 9.884024 -0.268359
v -0.990328 9.884002 -0.639620
v -0.826864 9.884035 -1.005467
v -1.176199 9.884218 -2.035014
v -1.385523 9.884237 -2.111844
v -2.078755 9.883882 -3.091054
v -2.137573 9.883565 -4.490664
v -1.907306 9.882626 -6.244376
v -0.493911 9.882693 -6.243127
v -0.442339 9.883875 -4.441391
v -0.626113 9.883535 -3.959511
v -0.418076 9.882931 -3.557687
v -0.220211 9.883101 -3.886383
v 1.221515 9.882660 -4.163014
v 2.717813 9.882375 -3.545850
v 3.064020 9.882242 -3.219499
v 3.660460 9.882178 -2.194538
v 3.594796 9.882281 -0.487186
v 3.277043 9.882334 0.541841
v 2.329003 9.882354 2.133281
v 1.924364 9.882398 2.466068
v 0.303172 9.882401 3.403400
v -1.765525 9.882455 3.449558
v -3.118763 9.882465 2.997909
v -3.534872 9.882628 2.572390
v -3.906077 9.872913 1.646853
v -4.028296 9.878672 1.484649
v -4.182168 9.883748 1.473941
v -4.782654 9.883569 2.404538
v -5.461508 0.341069 2.084824
v -5.108584 0.341069 1.150798
v -4.699817 0.341069 0.513121
v -3.941145 0.341069 0.230800
v -3.091738 0.341069 0.402065
v -1.841346 0.341069 0.074201
v -0.736990 0.341069 -0.377011
v -0.463606 0.341069 -0.986565
v -0.904421 0.341069 -2.269767
v -1.149913 0.341069 -2.382263
v -1.723096 0.341069 -3.187080
v -1.762337 0.341069 -4.449093
v -1.650188 0.341069 -5.937377
v -0.761801 0.341069 -5.947186
v -0.810727 0.341069 -4.467624
v -0.991674 0.341069 -3.864828
v -0.455372 0.341069 -3.167199
v -0.062955 0.341069 -3.531274
v 1.162257 0.341069 -3.767815
v 2.482303 0.341069 -3.214070
v 2.739555 0.341069 -2.968810
v 3.261686 0.341069 -2.092413
v 3.191051 0.341069 -0.552569
v 2.902189 0.341069 0.381601
v 2.020559 0.341069 1.867552
v 1.688313 0.341069 2.135704
v 0.190589 0.341069 3.013409
v -1.705568 0.341069 3.049512
v -2.906364 0.341069 2.653955
v -3.206170 0.341069 2.343161
v -3.574556 0.331250 1.429242
v -3.863263 0.336860 1.127056
v -4.333529 0.341069 1.133649
v -4.935114 0.341069 2.058154
v -5.498105 9.883793 2.110627
v -5.144033 9.883793 1.167888
v -4.731586 9.883793 0.524472
v -3.966085 9.883793 0.239608
v -3.108632 9.883793 0.413729
v -1.847086 9.883793 0.082578
v -0.733088 9.883793 -0.373673
v -0.457243 9.883793 -0.988714
v -0.902026 9.883793 -2.283468
v -1.149728 9.883793 -2.396976
v -1.728070 9.883793 -3.209037
v -1.767665 9.883793 -4.482411
v -1.654506 9.883793 -5.974207
v -0.758121 9.883793 -5.984106
v -0.807488 9.883793 -4.501108
v -0.990065 9.883793 -3.892886
v -0.448935 9.883793 -3.188977
v -0.052986 9.883793 -3.556330
v 1.183256 9.883793 -3.795000
v 2.515184 9.883793 -3.236270
v 2.774750 9.883793 -2.988802
v 3.301582 9.883793 -2.104517
v 3.230311 9.883793 -0.550812
v 2.938848 9.883793 0.391767
v 2.049283 9.883793 1.891094
v 1.714046 9.883793 2.161659
v 0.202841 9.883793 3.047265
v -1.710385 9.883793 3.083693
v -2.921989 9.883793 2.684576
v -3.224494 9.883793 2.370984
v -3.595240 9.873974 1.446157
v -3.886857 9.879583 1.142752
v -4.362001 9.883793 1.150584
v -4.966972 9.883793 2.083716
vn -0.2609 0.0007 -0.9654
vn -0.0686 -0.0019 0.9976
vn 0.3812 -0.0035 -0.9245
vn -0.3556 0.0005 -0.9346
vn 0.8401 0.0014 0.5424
vn 0.6859 -0.0041 -0.7277
vn -0.9130 0.0005 -0.4079
vn 0.8643 -0.0042 -0.5029
vn -0.9470 0.0007 0.3213
vn -0.8317 -0.0021 -0.5552
vn 0.9993 -0.0041 0.0384
vn -0.3439 0.0014 0.9390
vn 0.9555 -0.0040 0.2950
vn -0.8161 0.0009 0.5778
vn 0.8591 -0.0038 0.5118
vn -0.9991 -0.0004 0.0421
vn 0.6352 -0.0038 0.7723
vn -0.9915 -0.0010 -0.1299
vn 0.5005 -0.0037 0.8657
vn 0.0010 -0.0039 -1.0000
vn 0.0223 -0.0036 0.9997
vn 0.9996 -0.0004 -0.0286
vn -0.3166 -0.0036 0.9486
vn 0.9341 0.0009 0.3570
vn -0.7150 -0.0034 0.6991
vn 0.8888 -0.0016 -0.4583
vn -0.3532 -0.0001 -0.9356
vn -0.9278 -0.0028 0.3731
vn -0.8578 -0.0005 -0.5139
vn 0.1932 0.0015 -0.9812
vn -0.7991 -0.0028 0.6012
vn -0.1885 -0.0024 -0.9821
vn -0.9717 -0.0031 -0.2363
vn -0.0745 -0.0030 0.9972
vn 0.2538 -0.0007 0.9673
vn -0.0152 0.0017 -0.9999
vn -0.3868 0.0035 0.9221
vn 0.3786 -0.0005 0.9256
vn -0.8386 -0.0014 -0.5447
vn -0.6900 0.0041 0.7238
vn 0.9124 -0.0005 0.4092
vn -0.8591 0.0042 0.5118
vn 0.9458 -0.0007 -0.3249
vn 0.8419 0.0022 0.5397
vn -0.9989 0.0041 -0.0458
vn 0.4166 -0.0014 -0.9091
vn -0.9554 0.0040 -0.2954
vn 0.8145 -0.0009 -0.5801
vn -0.8600 0.0038 -0.5103
vn 0.9995 0.0004 -0.0311
vn -0.6280 0.0038 -0.7782
vn 0.9972 0.0008 0.0754
vn -0.5056 0.0037 -0.8628
vn 0.0110 0.0039 0.9999
vn -0.0190 0.0036 -0.9998
vn -0.9995 0.0002 -0.0332
vn 0.3129 0.0036 -0.9498
vn -0.9578 -0.0007 -0.2875
vn 0.7197 0.0034 -0.6943
vn -0.7928 0.0019 0.6095
vn 0.3488 -0.0000 0.9372
vn 0.9278 0.0028 -0.3730
vn 0.6801 0.0012 0.7331
vn -0.1983 -0.0015 0.9801
vn 0.7220 0.0029 -0.6919
vn 0.1896 0.0024 0.9819
vn 0.9358 0.0027 0.3525
vn -0.0506 0.0025 -0.9987
vn 0.0043 -1.0000 0.0009
vn 0.0024 -1.0000 0.0018
vn -0.0003 -1.0000 -0.0003
vn 0.0020 1.0000 -0.0008
vn 0.0034 1.0000 0.0020
vn 0.0011 -1.0000 -0.0035
vn 0.0017 -1.0000 0.0008
vn 0.0003 -1.0000 0.0026
vn -0.0015 -1.0000 0.0032
vn -0.0024 1.0000 -0.0018
vn 0.0025 1.0000 0.0030
vn 0.0003 1.0000 0.0003
vn 0.0009 1.0000 -0.0002
vn 0.0003 -1.0000 -0.0010
vn -0.0029 -1.0000 0.0028
vn -0.0043 1.0000 -0.0009
vn -0.0003 -1.0000 -0.0008
vn -0.0038 -1.0000 0.0022
vn -0.0034 -1.0000 -0.0020
vn 0.0005 1.0000 -0.0006
vn -0.0003 1.0000 -0.0026
vn 0.0019 1.0000 0.0033
vn -0.0011 1.0000 0.0035
vn 0.0148 0.9999 0.0006
vn -0.0002 -1.0000 -0.0006
vn -0.0043 -1.0000 -0.0001
vn -0.0017 1.0000 -0.0008
vn -0.0006 -1.0000 -0.0003
vn -0.0039 -1.0000 -0.0012
vn -0.0004 1.0000 -0.0001
vn -0.0002 1.0000 -0.0001
vn 0.0015 1.0000 -0.0032
vn 0.0001 1.0000 0.0038
vn -0.0009 -1.0000 0.0002
vn -0.0005 -1.0000 0.0011
vn -0.0025 -1.0000 -0.0030
vn -0.0003 1.0000 0.0010
vn -0.0020 1.0000 -0.0005
vn -0.0012 1.0000 0.0035
vn -0.0005 -1.0000 0.0006
vn -0.0019 -1.0000 -0.0033
vn 0.0002 -1.0000 0.0001
vn -0.0001 -1.0000 -0.0038
vn 0.0004 -1.0000 0.0001
vn 0.0003 1.0000 0.0008
vn -0.0000 1.0000 -0.0043
vn 0.0038 1.0000 -0.0022
vn -0.0024 1.0000 0.0025
vn 0.0020 -1.0000 0.0005
vn 0.0012 -1.0000 -0.0035
vn 0.0029 1.0000 -0.0028
vn -0.0000 -1.0000 0.0043
vn 0.0024 -1.0000 -0.0025
vn 0.0002 1.0000 0.0006
vn 0.0015 1.0000 -0.0004
vn 0.0043 1.0000 0.0002
vn -0.0083 0.9999 -0.0072
vn 0.0005 1.0000 -0.0011
vn -0.0015 -1.0000 0.0004
vn 0.0083 -0.9999 0.0073
vn -0.0002 -1.0000 -0.0004
vn -0.0121 -0.9998 -0.0138
vn 0.0006 1.0000 0.0003
vn 0.0002 1.0000 0.0004
vn 0.0039 1.0000 0.0012
vn 0.0121 0.9998 0.0137
vn -0.0020 -1.0000 0.0008
vn -0.0150 -0.9999 -0.0007
vt 0.072678 0.717247
vt 0.078542 0.716827
vt 0.078544 0.745223
vt 0.072679 0.745390
vt 0.890791 0.822029
vt 0.884951 0.821308
vt 0.884842 0.811921
vt 0.890682 0.812749
vt 0.769729 0.397688
vt 0.763884 0.397057
vt 0.763542 0.372137
vt 0.769390 0.372991
vt 0.078455 0.771211
vt 0.072592 0.771147
vt 0.885786 0.791222
vt 0.891617 0.792199
vt 0.737335 0.224491
vt 0.731518 0.224642
vt 0.731767 0.217674
vt 0.737582 0.217586
vt 0.398008 0.598338
vt 0.392146 0.598432
vt 0.391863 0.587262
vt 0.397728 0.587268
vt 0.732225 0.195696
vt 0.738036 0.195803
vt 0.391905 0.557489
vt 0.397769 0.557761
vt 0.078366 0.682053
vt 0.072503 0.682785
vt 0.072796 0.670627
vt 0.078661 0.669786
vt 0.731952 0.164339
vt 0.737765 0.164726
vt 0.392038 0.553605
vt 0.397901 0.553911
vt 0.731518 0.147124
vt 0.737335 0.147665
vt 0.392250 0.533104
vt 0.398111 0.533594
vt 0.180015 0.580703
vt 0.185840 0.580384
vt 0.184812 0.611763
vt 0.178977 0.612364
vt 0.392043 0.506251
vt 0.397906 0.506980
vt 0.180140 0.571567
vt 0.185965 0.571329
vt 0.391703 0.475765
vt 0.397567 0.476561
vt 0.180406 0.533551
vt 0.186228 0.533653
vt 0.617552 0.920010
vt 0.611713 0.919856
vt 0.611713 0.900936
vt 0.617552 0.901258
vt 0.179764 0.495719
vt 0.185592 0.496158
vt 0.869387 0.839825
vt 0.863540 0.840488
vt 0.863309 0.810423
vt 0.869157 0.809827
vt 0.178977 0.475768
vt 0.184812 0.476385
vt 0.863039 0.799274
vt 0.868889 0.798777
vt 0.391789 0.613763
vt 0.397628 0.613156
vt 0.397587 0.621556
vt 0.391749 0.622089
vt 0.863541 0.780892
vt 0.869387 0.780559
vt 0.078320 0.699751
vt 0.072458 0.700325
vt 0.397544 0.643148
vt 0.391702 0.643439
vt 0.769390 0.435079
vt 0.763542 0.434784
vt 0.763755 0.424405
vt 0.769601 0.424792
vt 0.397628 0.651268
vt 0.391787 0.651515
vt 0.307768 0.901657
vt 0.313605 0.901647
vt 0.313605 0.919017
vt 0.307766 0.919202
vt 0.885786 0.780559
vt 0.891617 0.781631
s 0
f 5/1/1 39/2/1 40/3/1 6/4/1
f 32/5/2 66/6/2 67/7/2 33/8/2
f 19/9/3 53/10/3 54/11/3 20/12/3
f 6/4/4 40/3/4 41/13/4 7/14/4
f 68/15/5 34/16/5 33/8/5 67/7/5
f 20/17/6 54/18/6 55/19/6 21/20/6
f 7/21/7 41/22/7 42/23/7 8/24/7
f 21/20/8 55/19/8 56/25/8 22/26/8
f 8/24/9 42/23/9 43/27/9 9/28/9
f 37/29/10 3/30/10 2/31/10 36/32/10
f 22/26/11 56/25/11 57/33/11 23/34/11
f 9/28/12 43/27/12 44/35/12 10/36/12
f 23/34/13 57/33/13 58/37/13 24/38/13
f 10/36/14 44/35/14 45/39/14 11/40/14
f 59/41/15 25/42/15 24/43/15 58/44/15
f 11/40/16 45/39/16 46/45/16 12/46/16
f 25/42/17 59/41/17 60/47/17 26/48/17
f 12/46/18 46/45/18 47/49/18 13/50/18
f 61/51/19 27/52/19 26/48/19 60/47/19
f 13/53/20 47/54/20 48/55/20 14/56/20
f 27/52/21 61/51/21 62/57/21 28/58/21
f 14/59/22 48/60/22 49/61/22 15/62/22
f 28/58/23 62/57/23 63/63/23 29/64/23
f 15/62/24 49/61/24 50/65/24 16/66/24
f 29/67/25 63/68/25 64/69/25 30/70/25
f 16/66/26 50/65/26 51/71/26 17/72/26
f 3/30/27 37/29/27 38/73/27 4/74/27
f 30/70/28 64/69/28 65/75/28 31/76/28
f 17/77/29 51/78/29 52/79/29 18/80/29
f 4/74/30 38/73/30 39/2/30 5/1/30
f 31/76/31 65/75/31 66/81/31 32/82/31
f 18/80/32 52/79/32 53/10/32 19/9/32
f 36/83/33 2/84/33 1/85/33 35/86/33
f 35/87/34 1/88/34 34/16/34 68/15/34
f 73/1/35 74/4/35 108/3/35 107/2/35
f 100/5/36 101/8/36 135/7/36 134/6/36
f 87/9/37 88/12/37 122/11/37 121/10/37
f 74/4/38 75/14/38 109/13/38 108/3/38
f 136/15/39 135/7/39 101/8/39 102/16/39
f 88/17/40 89/20/40 123/19/40 122/18/40
f 75/21/41 76/24/41 110/23/41 109/22/41
f 89/20/42 90/26/42 124/25/42 123/19/42
f 76/24/43 77/28/43 111/27/43 110/23/43
f 105/29/44 104/32/44 70/31/44 71/30/44
f 90/26/45 91/34/45 125/33/45 124/25/45
f 77/28/46 78/36/46 112/35/46 111/27/46
f 91/34/47 92/38/47 126/37/47 125/33/47
f 78/36/48 79/40/48 113/39/48 112/35/48
f 127/41/49 126/44/49 92/43/49 93/42/49
f 79/40/50 80/46/50 114/45/50 113/39/50
f 93/42/51 94/48/51 128/47/51 127/41/51
f 80/46/52 81/50/52 115/49/52 114/45/52
f 129/51/53 128/47/53 94/48/53 95/52/53
f 81/53/54 82/56/54 116/55/54 115/54/54
f 95/52/55 96/58/55 130/57/55 129/51/55
f 82/59/56 83/62/56 117/61/56 116/60/56
f 96/58/57 97/64/57 131/63/57 130/57/57
f 83/62/58 84/66/58 118/65/58 117/61/58
f 97/67/59 98/70/59 132/69/59 131/68/59
f 84/66/60 85/72/60 119/71/60 118/65/60
f 71/30/61 72/74/61 106/73/61 105/29/61
f 98/70/62 99/76/62 133/75/62 132/69/62
f 85/77/63 86/80/63 120/79/63 119/78/63
f 72/74/64 73/1/64 107/2/64 106/73/64
f 99/76/65 100/82/65 134/81/65 133/75/65
f 86/80/66 87/9/66 121/10/66 120/79/66
f 104/83/67 103/86/67 69/85/67 70/84/67
f 103/87/68 136/15/68 102/16/68 69/88/68
f 1/85/69 2/84/69 70/84/69 69/85/69
f 17/77/70 18/80/70 86/80/70 85/77/70
f 33/8/71 34/16/71 102/16/71 101/8/71
f 51/71/72 50/65/72 118/65/72 119/71/72
f 59/41/73 58/44/73 126/44/73 127/41/73
f 34/16/74 1/88/74 69/88/74 102/16/74
f 2/31/75 3/30/75 71/30/75 70/31/75
f 18/80/76 19/9/76 87/9/76 86/80/76
f 19/9/77 20/12/77 88/12/77 87/9/77
f 52/79/78 51/78/78 119/78/78 120/79/78
f 60/47/79 59/41/79 127/41/79 128/47/79
f 68/15/80 67/7/80 135/7/80 136/15/80
f 43/27/81 42/23/81 110/23/81 111/27/81
f 4/74/82 5/1/82 73/1/82 72/74/82
f 20/17/83 21/20/83 89/20/83 88/17/83
f 36/83/84 35/86/84 103/86/84 104/83/84
f 5/1/85 6/4/85 74/4/85 73/1/85
f 21/20/86 22/26/86 90/26/86 89/20/86
f 24/43/87 25/42/87 93/42/87 92/43/87
f 45/39/88 44/35/88 112/35/88 113/39/88
f 53/10/89 52/79/89 120/79/89 121/10/89
f 61/51/90 60/47/90 128/47/90 129/51/90
f 35/87/91 68/15/91 136/15/91 103/87/91
f 67/7/92 66/6/92 134/6/92 135/7/92
f 6/4/93 7/14/93 75/14/93 74/4/93
f 22/26/94 23/34/94 91/34/94 90/26/94
f 37/29/95 36/32/95 104/32/95 105/29/95
f 7/21/96 8/24/96 76/24/96 75/21/96
f 23/34/97 24/38/97 92/38/97 91/34/97
f 38/73/98 37/29/98 105/29/98 106/73/98
f 46/45/99 45/39/99 113/39/99 114/45/99
f 54/11/100 53/10/100 121/10/100 122/11/100
f 62/57/101 61/51/101 129/51/101 130/57/101
f 8/24/102 9/28/102 77/28/102 76/24/102
f 9/28/103 10/36/103 78/36/103 77/28/103
f 25/42/104 26/48/104 94/48/104 93/42/104
f 39/2/105 38/73/105 106/73/105 107/2/105
f 47/49/106 46/45/106 114/45/106 115/49/106
f 63/63/107 62/57/107 130/57/107 131/63/107
f 10/36/108 11/40/108 79/40/108 78/36/108
f 26/48/109 27/52/109 95/52/109 94/48/109
f 11/40/110 12/46/110 80/46/110 79/40/110
f 27/52/111 28/58/111 96/58/111 95/52/111
f 3/30/112 4/74/112 72/74/112 71/30/112
f 40/3/113 39/2/113 107/2/113 108/3/113
f 48/55/114 47/54/114 115/54/114 116/55/114
f 56/25/115 55/19/115 123/19/115 124/25/115
f 64/69/116 63/68/116 131/68/116 132/69/116
f 12/46/117 13/50/117 81/50/117 80/46/117
f 28/58/118 29/64/118 97/64/118 96/58/118
f 55/19/119 54/18/119 122/18/119 123/19/119
f 13/53/120 14/56/120 82/56/120 81/53/120
f 29/67/121 30/70/121 98/70/121 97/67/121
f 41/13/122 40/3/122 108/3/122 109/13/122
f 49/61/123 48/60/123 116/60/123 117/61/123
f 57/33/124 56/25/124 124/25/124 125/33/124
f 65/75/125 64/69/125 132/69/125 133/75/125
f 44/35/126 43/27/126 111/27/126 112/35/126
f 14/59/127 15/62/127 83/62/127 82/59/127
f 30/70/128 31/76/128 99/76/128 98/70/128
f 15/62/129 16/66/129 84/66/129 83/62/129
f 31/76/130 32/82/130 100/82/130 99/76/130
f 42/23/131 41/22/131 109/22/131 110/23/131
f 50/65/132 49/61/132 117/61/132 118/65/132
f 58/37/133 57/33/133 125/33/133 126/37/133
f 66/81/134 65/75/134 133/75/134 134/81/134
f 16/66/135 17/72/135 85/72/135 84/66/135
f 32/5/136 33/8/136 101/8/136 100/5/136
