# Blender 5.0.1
# www.blender.org
o parietalcell
v -2.389154 3.258972 3.222848
v -2.477842 3.281120 3.077878
v -2.477842 3.281120 4.159225
v -2.389154 3.258972 4.014255
v -5.337266 3.199042 4.027746
v -5.249329 3.221322 4.159225
v -5.258302 3.196124 3.074003
v -5.336083 3.202114 3.210024
v -2.616560 3.770555 3.946486
v -2.696872 3.771507 4.075919
v -2.616560 3.770555 3.290618
v -2.696872 3.771507 3.161184
v -5.122246 3.734284 3.184054
v -5.037670 3.743285 3.148380
v -5.122246 3.734284 4.024406
v -5.039412 3.743099 4.060172
v -4.769367 2.675991 4.697228
v -4.744726 2.790143 4.773714
v -3.025039 2.790143 4.773714
v -3.000399 2.675991 4.697228
v -4.744726 2.790142 2.463389
v -4.769367 2.675991 2.539874
v -3.000399 2.675991 2.539874
v -3.025039 2.790142 2.463389
v -2.296251 2.675991 3.114912
v -2.287796 2.792757 3.073351
v -2.292012 2.675991 4.126987
v -2.287796 2.792757 4.163752
v -5.398719 2.675991 3.110030
v -5.404404 2.792734 3.073348
v -5.394714 2.675991 4.122556
v -5.404539 2.792732 4.163755
v -2.290665 2.675991 3.113368
v -2.215339 2.794761 3.219158
v -2.296964 2.675991 4.122513
v -2.215339 2.794761 4.017945
v -5.400936 2.675991 4.123938
v -5.476903 2.794358 4.031511
v -5.394364 2.675991 3.114437
v -5.476902 2.794361 3.205656
v -4.145989 4.524806 2.915669
v -4.111174 4.524806 4.321434
v -3.496145 4.524806 2.915669
v -3.488331 4.524806 4.321434
v -3.711854 4.524806 2.915669
v -3.699972 4.524806 4.321434
v -3.428945 4.704926 4.157866
v -3.472914 4.614874 4.287723
v -3.370668 4.704926 4.157866
v -3.479081 4.614874 2.949381
v -3.431417 4.704926 3.079238
v -3.370668 4.704926 3.079238
v -4.325062 4.922537 4.072313
v -4.231809 4.922537 4.072313
v -4.204024 4.833119 4.202607
v -4.239917 4.922537 3.164789
v -4.219463 4.833119 3.034497
v -4.325062 4.922537 3.164789
v -3.986407 5.069312 3.939147
v -4.024912 4.945529 4.184243
v -3.849755 5.069312 3.939147
v -3.802192 4.945529 4.184243
v -4.043770 4.945529 3.052860
v -3.995050 5.069312 3.297956
v -3.852704 5.069312 3.297956
v -3.808627 4.945529 3.052860
v -3.646187 4.922277 4.040353
v -3.661881 4.803048 4.214126
v -3.549631 4.922277 4.040353
v -3.530953 4.803048 4.214126
v -3.669231 4.803048 3.022978
v -3.650338 4.922277 3.196748
v -3.552361 4.922277 3.196748
v -3.535787 4.803048 3.022978
v -4.397905 4.513582 2.911822
v -4.449554 4.510714 2.957880
v -4.582703 3.940355 2.700776
v -4.628758 3.949496 2.751013
v -3.324840 4.524806 2.963608
v -3.373068 4.514610 2.912177
v -3.184170 3.913050 2.691247
v -3.137352 3.922776 2.742600
v -4.779303 3.257657 4.709098
v -4.674317 3.257658 4.763370
v -4.720431 3.257657 4.697141
v -4.589544 3.912840 4.545928
v -4.636096 3.923494 4.494273
v -2.998485 3.257657 4.715362
v -3.056782 3.257657 4.695014
v -3.092683 3.257658 4.763370
v -3.183319 3.913226 4.545790
v -3.137352 3.922776 4.495371
v -3.056782 3.257657 2.537645
v -2.998479 3.257657 2.521745
v -3.102891 3.257657 2.473733
v -2.786672 3.772571 3.223689
v -2.745222 3.772079 3.161294
v -2.745221 3.772079 4.075809
v -2.786672 3.772571 4.013413
v -4.953078 3.752288 3.999199
v -4.994618 3.747867 4.059267
v -4.674313 3.257657 2.473733
v -4.779060 3.255433 2.526708
v -4.720431 3.257657 2.539500
v -4.994931 3.747834 3.148995
v -4.953078 3.752288 3.207700
v -3.324840 4.524806 4.274353
v -3.372205 4.514794 4.324865
v -3.396298 4.614874 4.287723
v -3.356713 4.659895 4.222802
v -3.396298 4.614874 2.949381
v -3.356713 4.659896 3.014303
v -4.397908 4.513618 4.325270
v -4.449580 4.510717 4.279236
v -4.301736 4.833119 4.202607
v -4.338595 4.877602 4.137791
v -4.301736 4.833119 3.034497
v -4.338595 4.877601 3.099313
vn -0.0000 1.0000 -0.0000
vn -0.8856 0.4645 -0.0000
vn 0.9049 0.4256 -0.0000
vn 0.0119 0.9999 -0.0000
vn -0.1058 0.9944 -0.0000
vn 0.8185 0.3625 -0.4456
vn 0.8075 0.3843 -0.4476
vn 0.7884 0.4192 -0.4503
vn 0.8075 0.3843 0.4476
vn 0.8186 0.3625 0.4456
vn 0.7884 0.4192 0.4503
vn -0.7800 0.3142 0.5412
vn -0.7465 0.3245 0.5809
vn -0.6890 0.3390 0.6405
vn -0.7597 0.3049 -0.5743
vn -0.7740 0.3037 -0.5557
vn -0.6939 0.3085 -0.6507
vn 0.6163 0.4459 0.6491
vn 0.6559 0.2162 0.7233
vn 0.6602 0.2442 0.7103
vn 0.9258 0.3781 -0.0000
vn 0.9138 0.4062 -0.0000
vn 0.6602 0.2442 -0.7103
vn 0.6539 0.2161 -0.7250
vn 0.6163 0.4459 -0.6491
vn -0.6835 0.4085 -0.6049
vn -0.6968 0.2109 -0.6855
vn -0.7074 0.2212 -0.6713
vn -0.9355 0.3534 -0.0000
vn -0.9356 0.3530 -0.0000
vn -0.9279 0.3728 -0.0000
vn -0.7060 0.2360 0.6677
vn -0.6969 0.2167 0.6837
vn -0.6718 0.4383 0.5972
vn -0.2665 -0.4919 0.8288
vn -0.1527 -0.5248 0.8374
vn -0.6438 -0.3143 0.6977
vn 0.2558 -0.4825 0.8377
vn 0.1507 -0.5178 0.8421
vn 0.6020 -0.3081 0.7367
vn -0.1525 -0.5205 -0.8402
vn -0.2665 -0.4842 -0.8334
vn -0.6460 -0.2925 -0.7050
vn 0.1509 -0.5226 -0.8391
vn 0.2558 -0.4908 -0.8329
vn 0.5997 -0.3305 -0.7288
vn 0.8661 -0.1810 -0.4660
vn 0.8928 -0.2107 0.3982
vn -0.8727 -0.2272 -0.4323
vn -0.8415 -0.1975 0.5029
vn 0.8343 -0.5513 0.0029
vn -0.8309 -0.5564 -0.0030
vn 0.0042 0.2265 0.9740
vn 0.2562 0.0772 0.9635
vn -0.0000 -1.0000 -0.0000
vn 0.8370 0.3235 -0.4414
vn 0.8370 0.3235 0.4414
vn -0.8261 0.2971 0.4789
vn -0.8297 0.2964 -0.4731
vn 0.9365 0.3507 -0.0000
vn -0.9453 0.3263 -0.0001
vn 0.2592 0.0778 -0.9627
vn 0.6690 0.1621 -0.7253
vn -0.2505 0.0684 0.9657
vn -0.7105 0.1487 0.6878
vn -0.9709 0.2387 0.0196
vn -0.0000 0.3277 0.9448
vn -0.0000 0.3100 0.9507
vn 0.9680 0.2510 -0.0067
vn -0.0000 0.3277 -0.9448
vn -0.0000 0.3100 -0.9507
vn -0.9896 0.1435 0.0069
vn -0.0000 0.3283 0.9446
vn -0.0000 0.3598 0.9330
vn 0.9892 0.1462 -0.0045
vn -0.0000 0.3283 -0.9446
vn -0.0000 0.3598 -0.9330
vn -0.9485 0.3169 0.0042
vn 0.9653 0.2604 -0.0174
vn -0.0000 0.8217 0.5699
vn -0.0000 0.8217 -0.5699
vn -0.0000 0.8245 0.5658
vn -0.0000 0.8245 -0.5658
vn -0.0000 0.8926 0.4508
vn -0.0000 0.8926 -0.4508
vn -0.0000 0.8246 0.5658
vn -0.0000 0.8246 -0.5658
vn 0.6690 0.1621 0.7253
vn -0.0045 0.2264 -0.9740
vn -0.2452 0.0652 -0.9673
vn -0.7090 0.1421 -0.6908
vn -0.6158 0.4383 -0.6547
vn -0.6160 0.4384 -0.6545
vn -0.6153 0.4379 -0.6555
vn -0.6906 0.3545 -0.6304
vn -0.6811 0.3662 -0.6341
vn -0.7373 0.2926 -0.6089
vn 0.6207 0.4273 -0.6574
vn 0.6201 0.4287 -0.6570
vn 0.6324 0.3966 -0.6655
vn 0.6760 0.3659 -0.6396
vn 0.6864 0.3527 -0.6360
vn 0.7338 0.2869 -0.6158
vn -0.7400 0.2881 0.6078
vn -0.6910 0.3529 0.6308
vn -0.6791 0.3673 0.6355
vn 0.3152 0.8131 0.4894
vn -0.6164 0.4369 0.6551
vn -0.3842 0.7959 0.4679
vn 0.7803 0.2781 0.5602
vn 0.6998 0.3631 0.6151
vn 0.7140 0.3494 0.6067
vn 0.6202 0.4280 0.6574
vn 0.6197 0.4292 0.6570
vn -0.3688 0.7991 -0.4749
vn 0.3081 0.8043 -0.5081
vn 0.6297 0.4008 0.6654
vn -0.6152 0.4379 0.6556
vn -0.9819 0.1895 -0.0006
vn -0.9823 0.1874 -0.0006
vn -0.9541 0.2994 0.0002
vn -0.9541 0.2995 0.0002
vn -0.0000 0.3285 -0.9445
vn -0.0000 0.3279 -0.9447
vn -0.0000 0.3278 -0.9447
vn 0.0040 0.2263 -0.9741
vn 0.9830 0.1835 -0.0000
vn 0.9830 0.1834 -0.0000
vn 0.9571 0.2898 -0.0000
vn -0.0000 0.3278 0.9447
vn -0.0046 0.2266 0.9740
vn -0.0000 0.3279 0.9447
vn -0.0000 0.3285 0.9445
vn 0.0015 0.3492 0.9370
vn 0.9694 0.2454 -0.0000
vn 0.0014 0.3492 -0.9371
vn -0.0011 0.3590 0.9333
vn -0.0013 0.3590 -0.9333
vn -0.9572 0.2894 -0.0000
vn -0.9917 0.1286 -0.0010
vn 0.9927 0.1203 -0.0000
vn -0.0329 0.9992 -0.0231
vt 0.868600 0.970748
vt 0.859683 0.970789
vt 0.859316 0.812451
vt 0.867870 0.812411
vt 0.334561 0.673458
vt 0.250612 0.774218
vt 0.250612 0.457526
vt 0.334561 0.557530
vt 0.850836 0.101937
vt 0.929749 0.000000
vt 0.929749 0.316571
vt 0.850836 0.218067
vt 0.946977 0.673232
vt 0.935274 0.692284
vt 0.928178 0.692300
vt 0.922054 0.683167
vt 0.921537 0.567240
vt 0.927580 0.558054
vt 0.934676 0.558006
vt 0.946548 0.576955
vt 0.929749 0.108338
vt 0.941922 0.103086
vt 0.948505 0.103218
vt 0.954610 0.112034
vt 0.954610 0.228223
vt 0.948459 0.236842
vt 0.942178 0.236933
vt 0.929749 0.231699
vt 0.796255 0.879827
vt 0.817147 0.886294
vt 0.804489 0.964091
vt 0.785864 0.960947
vt 0.658491 0.886240
vt 0.680139 0.879788
vt 0.689634 0.960915
vt 0.670279 0.964046
vt 0.758970 0.109861
vt 0.765937 0.090527
vt 0.848216 0.105099
vt 0.843368 0.110383
vt 0.761910 0.249831
vt 0.759374 0.229899
vt 0.843288 0.233743
vt 0.848231 0.238945
vt 0.178431 0.067134
vt 0.082091 0.104269
vt 0.105566 0.027888
vt 0.178345 0.060037
vt 0.446994 0.429680
vt 0.423537 0.353607
vt 0.519860 0.390457
vt 0.519774 0.397555
vt 0.850731 0.238837
vt 0.791050 0.329975
vt 0.791559 0.009611
vt 0.850836 0.105213
vt 0.000000 0.364242
vt 0.013470 0.360615
vt 0.035924 0.457526
vt 0.020808 0.456090
vt 0.000000 0.104564
vt 0.013470 0.108172
vt 0.020648 0.000625
vt 0.035928 -0.000000
vt 0.354914 0.097228
vt 0.341440 0.093543
vt 0.362066 0.000792
vt 0.377348 -0.000000
vt 0.354914 0.349669
vt 0.341440 0.353218
vt 0.377351 0.457501
vt 0.362242 0.456215
vt 0.811846 0.793602
vt 0.818116 0.809863
vt 0.797056 0.807432
vt 0.812098 0.793393
vt 0.658131 0.809809
vt 0.663372 0.793393
vt 0.664006 0.793578
vt 0.679857 0.807392
vt 0.698997 0.249896
vt 0.682882 0.244481
vt 0.683073 0.243832
vt 0.696079 0.230506
vt 0.683153 0.095845
vt 0.699094 0.089829
vt 0.696157 0.109274
vt 0.682882 0.095645
vt 0.080353 0.118093
vt 0.658132 0.550213
vt 0.658131 0.809891
vt 0.341440 0.809891
vt 0.341440 0.550213
vt 0.573718 0.913257
vt 0.573945 0.914077
vt 0.425806 0.913153
vt 0.425149 0.913880
vt 0.425800 0.458415
vt 0.425597 0.457502
vt 0.573788 0.458466
vt 0.574435 0.457827
vt 0.727534 0.000000
vt 0.199462 0.812966
vt 0.213149 0.812785
vt 0.213719 0.946010
vt 0.201222 0.946175
vt 0.194930 0.942957
vt 0.180548 0.943015
vt 0.180655 0.819176
vt 0.194828 0.819119
vt 0.846153 0.923500
vt 0.825259 0.923618
vt 0.825992 0.829488
vt 0.846050 0.829374
vt 0.875315 0.999996
vt 0.875315 0.793614
vt 0.938197 0.813312
vt 0.957491 0.849150
vt 0.957806 0.943279
vt 0.938596 0.979404
vt 0.276620 0.267613
vt 0.276620 0.207250
vt 0.341440 0.222259
vt 0.341440 0.254953
vt 0.333386 0.774218
vt 0.333386 0.980419
vt 0.270001 0.960491
vt 0.250704 0.924519
vt 0.250612 0.830457
vt 0.269884 0.794522
vt 0.618064 0.248841
vt 0.618064 0.185112
vt 0.682883 0.200098
vt 0.682883 0.234616
vt 0.119395 1.000000
vt 0.119395 0.793634
vt 0.160099 0.809307
vt 0.177560 0.834782
vt 0.177690 0.958621
vt 0.160217 0.984166
vt 0.276620 0.176182
vt 0.320089 0.182442
vt 0.320089 0.201662
vt 0.119395 0.793634
vt 0.119395 0.999854
vt 0.078393 0.984320
vt 0.060812 0.958917
vt 0.060739 0.835155
vt 0.078326 0.809576
vt 0.618064 0.280506
vt 0.661531 0.255074
vt 0.661531 0.274663
vt 0.946977 0.663865
vt 0.946977 0.457502
vt 0.960283 0.462434
vt 0.974853 0.481465
vt 0.975007 0.639804
vt 0.960338 0.658900
vt 0.060739 0.793634
vt 0.060739 0.999735
vt 0.014116 0.982630
vt 0.000538 0.963612
vt -0.000000 0.830497
vt 0.013611 0.811313
vt 0.852632 0.793444
vt 0.863878 0.793393
vt 0.869803 0.802883
vt 0.852632 0.989910
vt 0.870621 0.980284
vt 0.864783 0.989854
vt 0.197278 0.803395
vt 0.202492 0.793823
vt 0.216833 0.793634
vt 0.216833 0.965123
vt 0.204758 0.965282
vt 0.199292 0.955826
vt 0.819940 0.793578
vt 0.852632 0.793393
vt 0.818116 0.959674
vt 0.852632 0.959478
vt 0.178059 0.793712
vt 0.197278 0.793634
vt 0.177690 0.968570
vt 0.197278 0.968491
vt 0.423401 0.092223
vt 0.421801 0.107634
vt 0.727314 0.339145
vt 0.616328 0.148133
vt 0.617586 0.140521
vt 0.674899 0.156779
vt 0.666226 0.162224
vt 0.527141 0.121048
vt 0.530259 0.114256
vt 0.100978 0.753010
vt 0.101703 0.760361
vt 0.002009 0.793634
vt -0.000000 0.784001
vt 0.619798 0.305622
vt 0.616487 0.298574
vt 0.632097 0.295156
vt 0.640851 0.300933
vt 0.526153 0.333188
vt 0.522911 0.326346
vt 0.777515 0.761894
vt 0.777885 0.754584
vt 0.875315 0.784225
vt 0.873591 0.793393
vt -0.000000 0.467270
vt 0.002009 0.457526
vt 0.097547 0.489501
vt 0.097013 0.497107
vt 0.979336 0.007966
vt 0.987978 0.009722
vt 0.184819 0.344668
vt 0.181433 0.337830
vt 0.274890 0.309705
vt 0.276144 0.317294
vt 0.880629 0.467512
vt 0.889173 0.464487
vt 0.873972 0.457501
vt 0.875315 0.467694
vt 0.777885 0.497415
vt 0.777522 0.489798
vt 0.181493 0.131402
vt 0.184677 0.124658
vt 0.278325 0.152187
vt 0.275072 0.159135
vt 0.890609 0.786498
vt 0.882041 0.784202
vt 0.987977 0.326455
vt 0.979367 0.328333
vt 0.299410 0.156867
vt 0.290654 0.162673
vt 0.324784 0.295591
vt 0.333459 0.301006
vt 0.187457 0.528671
vt 0.187458 0.722640
vt 0.421801 0.338310
vt 0.685414 0.722026
vt 0.685414 0.529712
vt 0.080353 0.350270
vt 0.290654 0.173920
vt 0.665045 0.714604
vt 0.658131 0.705068
vt 0.658131 0.546810
vt 0.665046 0.537292
vt 0.632097 0.283004
vt 0.324784 0.281247
vt 0.666226 0.174301
vt 0.243723 0.549436
vt 0.250612 0.559048
vt 0.250612 0.692269
vt 0.243723 0.701880
vt 0.994747 -0.000000
vt 0.875315 0.457502
vt 0.875315 0.793614
vt 0.994747 0.336109
vt 0.082318 0.365687
s 1
f 52/1/1 51/2/1 47/3/1 49/4/1
f 96/5/2 93/6/2 89/7/2 99/8/2
f 100/9/3 85/10/3 104/11/3 106/12/3
f 11/13/4 12/14/4 97/15/4 96/16/4 99/17/4 98/18/4 10/19/4 9/20/4
f 15/21/5 16/22/5 101/23/5 100/24/5 106/25/5 105/26/5 14/27/5 13/28/5
f 1/29/6 2/30/7 12/31/8 11/32/8
f 3/33/9 4/34/10 9/35/11 10/36/11
f 5/37/12 6/38/13 16/39/14 15/40/14
f 7/41/15 8/42/16 13/43/17 14/44/17
f 98/45/18 88/46/19 3/47/20 10/48/18
f 4/34/21 1/29/21 11/32/22 9/35/22
f 2/49/23 94/50/24 97/51/25 12/52/25
f 105/53/26 103/54/27 7/41/28 14/44/26
f 8/42/29 5/37/30 15/40/31 13/43/31
f 6/38/32 83/55/33 101/56/34 16/39/34
f 17/57/35 18/58/36 32/59/37 31/60/37
f 18/58/36 17/57/35 20/61/38 19/62/39
f 19/62/39 20/61/38 27/63/40 28/64/40
f 21/65/41 22/66/42 29/67/43 30/68/43
f 22/66/42 21/65/41 24/69/44 23/70/45
f 23/70/45 24/69/44 26/71/46 25/72/46
f 25/73/47 26/74/47 34/75/47 33/76/47
f 28/77/48 27/78/48 35/79/48 36/80/48
f 30/81/49 29/82/49 39/83/49 40/84/49
f 31/85/50 32/86/50 38/87/50 37/88/50
f 33/76/51 34/75/51 36/80/51 35/79/51
f 37/88/52 38/87/52 40/84/52 39/83/52
f 90/89/53 19/62/54 88/46/19
f 22/90/55 23/91/55 20/92/55 17/93/55
f 20/92/55 23/91/55 25/94/55 33/95/55 35/96/55 27/97/55
f 22/90/55 17/93/55 31/98/55 37/99/55 39/100/55 29/101/55
f 34/75/56 26/74/56 2/30/7 1/29/6
f 28/77/57 36/80/57 4/34/10 3/33/9
f 38/87/58 32/86/58 6/38/13 5/37/12
f 30/81/59 40/84/59 8/42/16 7/41/15
f 4/34/21 36/80/60 34/75/60 1/29/21
f 8/42/29 40/84/61 38/87/61 5/37/30
f 24/69/62 94/50/24 2/49/23 26/71/63
f 18/102/64 83/55/33 6/38/32 32/86/65
f 53/103/1 54/104/1 56/105/1 58/106/1
f 73/107/1 72/108/1 67/109/1 69/110/1
f 65/111/1 64/112/1 59/113/1 61/114/1
f 41/115/66 42/116/66 60/117/66 59/118/66 64/119/66 63/120/66
f 42/121/67 46/122/67 62/123/68 60/124/68
f 46/125/69 45/126/69 66/127/69 65/128/69 61/129/69 62/130/69
f 45/131/70 41/132/70 63/133/71 66/134/71
f 45/135/72 46/136/72 68/137/72 67/138/72 72/139/72 71/140/72
f 46/122/67 44/141/73 70/142/74 68/143/74
f 44/144/75 43/145/75 74/146/75 73/147/75 69/148/75 70/149/75
f 43/150/76 45/131/70 71/151/77 74/152/77
f 43/153/78 44/154/78 48/155/78 47/156/78 51/157/78 50/158/78
f 42/159/79 41/160/79 57/161/79 56/162/79 54/163/79 55/164/79
f 47/3/80 48/165/80 109/166/80 110/167/80 49/4/80
f 50/168/81 51/2/81 52/1/81 112/169/81 111/170/81
f 53/103/82 116/171/82 115/172/82 55/173/82 54/104/82
f 56/105/83 57/174/83 117/175/83 118/176/83 58/106/83
f 59/113/84 60/177/84 62/178/84 61/114/84
f 63/179/85 64/112/85 65/111/85 66/180/85
f 67/109/86 68/181/86 70/182/86 69/110/86
f 71/183/87 72/108/87 73/107/87 74/184/87
f 88/46/19 19/62/54 28/64/88 3/47/20
f 103/185/27 102/186/89 21/65/90
f 103/54/27 21/187/90 30/81/91 7/41/28
f 75/188/92 76/189/93 118/190/94 117/191/94
f 76/189/93 75/188/92 77/192/95 78/193/96
f 78/194/96 77/195/95 102/196/97 104/197/97
f 79/198/98 80/199/99 111/200/100 112/201/100
f 80/199/99 79/198/98 82/202/101 81/203/102
f 81/204/102 82/205/101 93/206/103 95/207/103
f 85/208/104 84/209/104 86/210/105 87/211/106
f 83/212/107 85/213/107 100/24/107 101/23/107
f 87/214/106 86/215/105 113/216/108 114/217/108
f 89/218/109 88/219/109 98/18/109 99/17/109
f 90/220/110 89/221/110 92/222/111 91/223/112
f 91/224/112 92/225/111 107/226/113 108/227/114
f 94/228/115 93/229/115 96/16/115 97/15/115
f 104/230/116 103/231/116 105/26/116 106/25/116
f 108/227/114 107/226/113 110/232/117 109/233/117
f 114/217/108 113/216/108 115/234/118 116/235/118
f 78/194/119 87/211/120 114/236/121 76/237/122
f 75/188/123 41/132/70 45/131/70 43/150/76 80/199/124 81/203/125 95/238/126 102/186/89 77/192/125
f 92/222/127 82/205/128 79/239/129 107/240/129
f 86/215/130 84/241/131 90/89/53 91/224/130 108/227/132 44/141/73 46/122/67 42/121/67 113/216/133
f 44/141/73 108/227/132 109/233/134 48/242/134
f 107/240/129 79/239/129 112/243/135 52/244/135 49/245/135 110/246/135
f 80/199/124 43/150/76 50/247/136 111/200/136
f 113/216/133 42/121/67 55/248/137 115/234/137
f 41/132/70 75/188/123 117/191/138 57/249/138
f 76/237/122 114/236/121 116/250/139 53/251/139 58/252/139 118/253/139
f 78/194/119 104/197/140 85/208/140 87/211/120
f 92/222/127 89/221/141 93/206/141 82/205/128
f 83/212/1 84/254/1 85/213/1
f 88/219/1 89/218/1 90/255/1
f 93/229/1 94/228/1 95/256/1
f 102/257/142 103/231/142 104/230/142
f 18/58/64 19/62/54 90/89/53 84/241/131
f 18/58/64 84/241/131 83/258/33
f 24/69/62 95/238/126 94/50/24
f 21/65/90 102/186/89 95/238/126 24/69/62
